<?xml version="1.0" encoding="UTF-8"?>
<svg width="48px" height="38px" viewBox="0 0 48 38" version="1.1" xmlns="http://www.w3.org/2000/svg" xmlns:xlink="http://www.w3.org/1999/xlink">
    <!-- Generator: Sketch 45.2 (43514) - http://www.bohemiancoding.com/sketch -->
    <title>Artboard</title>
    <desc>Created with Sketch.</desc>
    <defs>
        <path d="M33.2487794,52.4651411 L38.2080267,5.2810547 L5.38880416,1.83161541 L1.10005992,42.6362912 L33.2487794,52.4651411 Z" id="path-1"></path>
        <path d="M33.9972465,53.9049098 L33.9972465,0.317271147 L0.997246453,0.317271147 L0.997246453,43.8157973 L33.9972465,53.9049098 Z" id="path-2"></path>
    </defs>
    <g id="Page-1" stroke="none" stroke-width="1" fill="none" fill-rule="evenodd">
        <g id="Artboard">
            <g id="Group" transform="translate(-1.000000, -1.000000)">
                <g id="Group-2">
                    <g id="Group" transform="translate(27.149035, 32.442069) rotate(-17.000000) translate(-27.149035, -32.442069) translate(7.649035, 5.442069)">
                        <g id="Combined-Shape">
                            <use fill="#FFFFFF" fill-rule="evenodd" xlink:href="#path-1"></use>
                            <path stroke="#E9E9E9" stroke-width="1" d="M32.81492,51.8096511 L37.6585015,5.72605142 L5.83380087,2.38114059 L1.64040417,42.2786451 L32.81492,51.8096511 Z"></path>
                        </g>
                        <g id="Combined-Shape">
                            <use fill="#FFFFFF" fill-rule="evenodd" xlink:href="#path-2"></use>
                            <path stroke="#E9E9E9" stroke-width="1" d="M33.4972465,53.2291986 L33.4972465,0.817271147 L1.49724645,0.817271147 L1.49724645,43.4458168 L33.4972465,53.2291986 Z"></path>
                        </g>
                        <rect id="Rectangle-4" fill="#E74040" x="6" y="8" width="23" height="4"></rect>
                        <rect id="Rectangle-4-Copy" fill="#D1D1D1" x="6" y="17" width="23" height="2"></rect>
                        <rect id="Rectangle-4-Copy-4" fill="#D1D1D1" x="6" y="30" width="23" height="2"></rect>
                        <rect id="Rectangle-4-Copy-2" fill="#D1D1D1" x="6" y="21" width="23" height="2"></rect>
                        <rect id="Rectangle-4-Copy-5" fill="#D1D1D1" x="6" y="34" width="23" height="2"></rect>
                        <rect id="Rectangle-4-Copy-3" fill="#D1D1D1" x="6" y="25" width="15" height="2"></rect>
                    </g>
                </g>
            </g>
        </g>
    </g>
</svg>