<?xml version="1.0" encoding="UTF-8" standalone="no"?>
<svg width="38px" height="38px" viewBox="0 0 38 38" version="1.1" xmlns="http://www.w3.org/2000/svg" xmlns:xlink="http://www.w3.org/1999/xlink" xmlns:sketch="http://www.bohemiancoding.com/sketch/ns">
    <!-- Generator: Sketch 3.3.3 (12072) - http://www.bohemiancoding.com/sketch -->
    <title>Rectangle 1</title>
    <desc>Created with Sketch.</desc>
    <defs></defs>
    <g id="Page-1" stroke="none" stroke-width="1" fill="none" fill-rule="evenodd" sketch:type="MSPage">
        <g id="32" sketch:type="MSArtboardGroup" fill="#3B5998">
            <path d="M0,3.99484381 C0,1.7885525 1.78185079,0 3.99484381,0 L34.0051562,0 C36.2114475,0 38,1.78185079 38,3.99484381 L38,34.0051562 C38,36.2114475 36.2181492,38 34.0051562,38 L3.99484381,38 C1.7885525,38 0,36.2181492 0,34.0051562 L0,3.99484381 Z M25.59,19.225 L21.326,19.225 L21.326,34.432 L15.006,34.432 L15.006,19.225 L12,19.225 L12,13.856 L15.006,13.856 L15.006,10.377 C15.006,7.887 16.188,4 21.385,4 L26.065,4.018 L26.065,9.233 L22.667,9.233 C22.112,9.233 21.327,9.51 21.327,10.694 L21.327,13.857 L26.145,13.857 L25.59,19.225 Z" id="Rectangle-1" sketch:type="MSShapeGroup"></path>
        </g>
    </g>
</svg>