<?xml version="1.0" encoding="UTF-8" standalone="no"?>
<svg width="19px" height="19px" viewBox="0 0 19 19" version="1.1" xmlns="http://www.w3.org/2000/svg" xmlns:xlink="http://www.w3.org/1999/xlink" xmlns:sketch="http://www.bohemiancoding.com/sketch/ns">
    <!-- Generator: Sketch 3.3.3 (12072) - http://www.bohemiancoding.com/sketch -->
    <title>Search</title>
    <desc>Created with Sketch.</desc>
    <defs></defs>
    <g id="Welcome" stroke="none" stroke-width="1" fill="none" fill-rule="evenodd" sketch:type="MSPage">
        <g id="Company---lines-overviews" sketch:type="MSArtboardGroup" transform="translate(-1263.000000, -197.000000)" fill="#DBD9D0">
            <g id="Search" sketch:type="MSLayerGroup" transform="translate(1263.000000, 197.000000)">
                <path d="M13.890043,11.4285046 C14.593939,10.2859944 15,8.94041753 15,7.5 C15,3.35786438 11.6421356,0 7.5,0 C3.35786438,0 0,3.35786438 0,7.5 C0,11.6421356 3.35786438,15 7.5,15 C8.94041753,15 10.2859944,14.593939 11.4285046,13.890043 L16.5384615,19 L19,16.5384615 L13.890043,11.4285046 Z M7.5,11.9444444 C9.95459889,11.9444444 11.9444444,9.95459889 11.9444444,7.5 C11.9444444,5.04540111 9.95459889,3.05555556 7.5,3.05555556 C5.04540111,3.05555556 3.05555556,5.04540111 3.05555556,7.5 C3.05555556,9.95459889 5.04540111,11.9444444 7.5,11.9444444 Z" id="Rectangle-50" sketch:type="MSShapeGroup"></path>
            </g>
        </g>
    </g>
</svg>